<svg width="70" height="70" viewBox="0 0 70 70" fill="none" xmlns="http://www.w3.org/2000/svg">
<path d="M50.1838 17.886H11.5809C10.5149 17.886 9.65076 18.7502 9.65076 19.8162V58.4191C9.65076 59.4851 10.5149 60.3493 11.5809 60.3493H50.1838C51.2498 60.3493 52.114 59.4851 52.114 58.4191V19.8162C52.114 18.7502 51.2498 17.886 50.1838 17.886Z" stroke="#25A4CC" stroke-width="1.5" stroke-linecap="round" stroke-linejoin="round"/>
<path d="M42.4633 14.0258V21.7463" stroke="#25A4CC" stroke-width="1.5" stroke-linecap="round" stroke-linejoin="round"/>
<path d="M19.3015 14.0258V21.7463" stroke="#25A4CC" stroke-width="1.5" stroke-linecap="round" stroke-linejoin="round"/>
<path d="M9.65076 29.4669H52.114" stroke="#25A4CC" stroke-width="1.5" stroke-linecap="round" stroke-linejoin="round"/>
<path d="M22.1967 39.1169H28.9522L25.0919 43.9422C25.7267 43.9422 26.3516 44.0987 26.9114 44.3979C27.4712 44.6971 27.9486 45.1297 28.3013 45.6574C28.654 46.1851 28.8712 46.7916 28.9336 47.4233C28.9959 48.0549 28.9016 48.6922 28.6588 49.2787C28.4161 49.8652 28.0325 50.3828 27.542 50.7856C27.0515 51.1885 26.4693 51.4642 25.8468 51.5883C25.2243 51.7124 24.5808 51.6811 23.9733 51.4972C23.3658 51.3133 22.8131 50.9824 22.364 50.5338" stroke="#25A4CC" stroke-width="1.5" stroke-linecap="round" stroke-linejoin="round"/>
<path d="M34.7427 42.0122L38.603 39.1169V51.6629" stroke="#25A4CC" stroke-width="1.5" stroke-linecap="round" stroke-linejoin="round"/>
<circle cx="42.5784" cy="15.5" r="7.5" fill="white"/>
<path d="M48.0392 4.11731C44.5102 4.11731 41.0604 5.16379 38.1261 7.12442C35.1918 9.08505 32.9048 11.8718 31.5543 15.1322C30.2038 18.3926 29.8505 21.9802 30.539 25.4415C31.2274 28.9027 32.9268 32.082 35.4222 34.5774C37.9177 37.0729 41.097 38.7723 44.5582 39.4607C48.0195 40.1492 51.6071 39.7959 54.8675 38.4454C58.1279 37.0949 60.9146 34.8079 62.8753 31.8736C64.8359 28.9393 65.8824 25.4895 65.8824 21.9604C65.8769 17.2298 63.9953 12.6945 60.6502 9.34948C57.3052 6.00443 52.7699 4.12278 48.0392 4.11731ZM54.902 23.333H49.4118V28.8232C49.4118 29.1872 49.2672 29.5363 49.0098 29.7937C48.7524 30.0511 48.4033 30.1957 48.0392 30.1957C47.6752 30.1957 47.3261 30.0511 47.0687 29.7937C46.8113 29.5363 46.6667 29.1872 46.6667 28.8232V23.333H41.1765C40.8125 23.333 40.4634 23.1884 40.206 22.931C39.9486 22.6736 39.804 22.3245 39.804 21.9604C39.804 21.5964 39.9486 21.2473 40.206 20.9899C40.4634 20.7325 40.8125 20.5879 41.1765 20.5879H46.6667V15.0977C46.6667 14.7337 46.8113 14.3846 47.0687 14.1272C47.3261 13.8698 47.6752 13.7252 48.0392 13.7252C48.4033 13.7252 48.7524 13.8698 49.0098 14.1272C49.2672 14.3846 49.4118 14.7337 49.4118 15.0977V20.5879H54.902C55.266 20.5879 55.6151 20.7325 55.8725 20.9899C56.1299 21.2473 56.2745 21.5964 56.2745 21.9604C56.2745 22.3245 56.1299 22.6736 55.8725 22.931C55.6151 23.1884 55.266 23.333 54.902 23.333Z" fill="#25A4CC"/>
</svg>
