<svg width="32" height="32" viewBox="0 0 32 32" fill="none" xmlns="http://www.w3.org/2000/svg">
<path d="M22 7H28" stroke="black" stroke-width="1.5" stroke-linecap="round" stroke-linejoin="round"/>
<path d="M25 4V10" stroke="black" stroke-width="1.5" stroke-linecap="round" stroke-linejoin="round"/>
<path d="M3.87354 26.9988C5.10299 24.8708 6.8708 23.1037 8.99939 21.8752C11.128 20.6467 13.5424 20 16.0001 20C18.4577 20 20.8721 20.6468 23.0007 21.8754C25.1292 23.1039 26.897 24.871 28.1264 26.9991" stroke="black" stroke-width="1.5" stroke-linecap="round" stroke-linejoin="round"/>
<path d="M23.5063 14.7728C22.9716 16.2167 22.0313 17.4754 20.7985 18.3979C19.5657 19.3203 18.0928 19.8672 16.5568 19.9728C15.0207 20.0784 13.4868 19.7383 12.1394 18.9933C10.7919 18.2483 9.68822 17.1301 8.96088 15.773C8.23353 14.416 7.91346 12.8778 8.03913 11.3432C8.1648 9.80864 8.73086 8.34301 9.6693 7.12236C10.6077 5.90172 11.8787 4.97798 13.3294 4.46212C14.7801 3.94627 16.3489 3.86023 17.8473 4.21436" stroke="black" stroke-width="1.5" stroke-linecap="round" stroke-linejoin="round"/>
</svg>
