<svg width="60" height="60" viewBox="0 0 60 60" fill="none" xmlns="http://www.w3.org/2000/svg">
<path d="M48.75 9.375H11.25C10.2145 9.375 9.375 10.2145 9.375 11.25V48.75C9.375 49.7855 10.2145 50.625 11.25 50.625H48.75C49.7855 50.625 50.625 49.7855 50.625 48.75V11.25C50.625 10.2145 49.7855 9.375 48.75 9.375Z" stroke="#25A4CC" stroke-width="1.5" stroke-linecap="round" stroke-linejoin="round"/>
<path d="M41.25 5.625V13.125" stroke="#25A4CC" stroke-width="1.5" stroke-linecap="round" stroke-linejoin="round"/>
<path d="M18.75 5.625V13.125" stroke="#25A4CC" stroke-width="1.5" stroke-linecap="round" stroke-linejoin="round"/>
<path d="M9.375 20.625H50.625" stroke="#25A4CC" stroke-width="1.5" stroke-linecap="round" stroke-linejoin="round"/>
<path d="M21.5625 29.9992H28.125L24.375 34.6867C24.9916 34.6867 25.5987 34.8388 26.1425 35.1294C26.6863 35.42 27.1501 35.8402 27.4927 36.3529C27.8353 36.8655 28.0463 37.4547 28.1069 38.0683C28.1674 38.6819 28.0758 39.301 27.84 39.8707C27.6042 40.4405 27.2316 40.9433 26.7551 41.3346C26.2786 41.726 25.713 41.9938 25.1083 42.1143C24.5036 42.2349 23.8785 42.2045 23.2883 42.0258C22.6982 41.8472 22.1612 41.5257 21.725 41.09" stroke="#25A4CC" stroke-width="1.5" stroke-linecap="round" stroke-linejoin="round"/>
<path d="M33.75 32.8118L37.5 29.9993V42.1868" stroke="#25A4CC" stroke-width="1.5" stroke-linecap="round" stroke-linejoin="round"/>
</svg>
