<svg width="70" height="70" viewBox="0 0 70 70" fill="none" xmlns="http://www.w3.org/2000/svg">
<path d="M35 6.5625C29.3756 6.5625 23.8775 8.23033 19.201 11.3551C14.5245 14.4798 10.8796 18.9212 8.72719 24.1174C6.57482 29.3137 6.01166 35.0315 7.10893 40.5479C8.2062 46.0642 10.9146 51.1313 14.8917 55.1083C18.8687 59.0854 23.9358 61.7938 29.4521 62.8911C34.9685 63.9883 40.6863 63.4252 45.8826 61.2728C51.0788 59.1205 55.5202 55.4755 58.6449 50.799C61.7697 46.1225 63.4375 40.6244 63.4375 35C63.4288 27.4606 60.4299 20.2325 55.0987 14.9013C49.7676 9.5701 42.5394 6.57121 35 6.5625ZM48.5437 30.0204L32.5006 45.3329C32.0927 45.7211 31.5512 45.9375 30.9882 45.9375C30.4251 45.9375 29.8836 45.7211 29.4757 45.3329L21.4563 37.6767C21.0373 37.2754 20.7948 36.7242 20.782 36.1441C20.7691 35.5641 20.987 35.0027 21.3878 34.5832C21.7886 34.1637 22.3395 33.9205 22.9195 33.9069C23.4995 33.8933 24.0612 34.1105 24.4812 34.5108L30.9882 40.7251L45.5188 26.8546C45.9388 26.4543 46.5005 26.2371 47.0805 26.2507C47.6605 26.2643 48.2114 26.5075 48.6122 26.927C49.013 27.3464 49.2309 27.9079 49.2181 28.4879C49.2052 29.0679 48.9627 29.6191 48.5437 30.0204Z" fill="#2EB618"/>
</svg>
