<?xml version="1.0" encoding="utf-8"?>
<!-- Generator: Adobe Illustrator 25.2.1, SVG Export Plug-In . SVG Version: 6.00 Build 0)  -->
<svg version="1.1" id="Layer_1" xmlns="http://www.w3.org/2000/svg" xmlns:xlink="http://www.w3.org/1999/xlink" x="0px" y="0px"
	 viewBox="0 0 58.2 59.1" style="enable-background:new 0 0 58.2 59.1;" xml:space="preserve">
<style type="text/css">
	.st0{fill:#A3A3A3;}
</style>
<g>
	<g>
		<path class="st0" d="M9,9.4c-4,4-6.7,9-7.8,14.6c-1.1,5.4-0.5,11.2,1.6,16.4C5,45.6,8.6,50,13.3,53.2C18,56.3,23.5,58,29.1,58
			s11.1-1.7,15.8-4.8s8.3-7.6,10.5-12.8S58.1,29.5,57,24c-1.1-5.5-3.8-10.6-7.8-14.6c-5.3-5.3-12.6-8.3-20.1-8.3
			C21.6,1.1,14.3,4,9,9.4z M38.4,23.3l-6.2,6.2l6.2,6.2c0.4,0.4,0.6,1,0.6,1.5s-0.2,1.1-0.6,1.5c-0.4,0.4-1,0.6-1.5,0.6
			c-0.6,0-1.1-0.2-1.5-0.6l-6.2-6.2L23,38.7c-0.4,0.4-1,0.6-1.5,0.6c-0.6,0-1.1-0.2-1.5-0.6c-0.4-0.4-0.6-1-0.6-1.5s0.2-1.1,0.6-1.5
			l6.2-6.2l-6.4-6.2c-0.4-0.4-0.6-1-0.6-1.5c0-0.6,0.2-1.1,0.6-1.5s1-0.6,1.5-0.6c0.6,0,1.1,0.2,1.5,0.6l6.2,6.2l6.2-6.2
			c0.4-0.4,1-0.6,1.5-0.6c0.6,0,1.1,0.2,1.5,0.6s0.6,1,0.6,1.5C39,22.3,38.8,22.9,38.4,23.3z"/>
	</g>
</g>
</svg>
