<svg width="341" height="66" viewBox="0 0 341 66" fill="none" xmlns="http://www.w3.org/2000/svg">
<path d="M35.5117 42V24.9375H40.2812C41.6797 24.9375 42.9336 25.2578 44.043 25.8984C45.1523 26.5312 46.0156 27.4414 46.6328 28.6289C47.2578 29.8164 47.5703 31.168 47.5703 32.6836V34.2539C47.5703 35.7773 47.2617 37.1289 46.6445 38.3086C46.0273 39.4883 45.1562 40.3984 44.0312 41.0391C42.9141 41.6797 41.6289 42 40.1758 42H35.5117ZM36.9531 26.168V40.7812H40.1875C41.9844 40.7812 43.4258 40.1875 44.5117 39C45.5977 37.8047 46.1406 36.1914 46.1406 34.1602V32.6602C46.1406 30.6992 45.6055 29.1289 44.5352 27.9492C43.4648 26.7695 42.0547 26.1758 40.3047 26.168H36.9531ZM72.332 33.8203H64.3516V40.7812H73.5273V42H62.9102V24.9375H73.4688V26.168H64.3516V32.6016H72.332V33.8203ZM100.949 42H99.5078L89.6992 27.3984V42H88.2461V24.9375H89.6992L99.5195 39.5508V24.9375H100.949V42ZM128.066 26.168H122.219V42H120.777V26.168H114.941V24.9375H128.066V26.168ZM178.504 40.7812H186.93V42H177.051V24.9375H178.504V40.7812ZM219.918 42H218.477L208.668 27.3984V42H207.215V24.9375H208.668L218.488 39.5508V24.9375H219.918V42ZM223.152 35.4727C223.152 34.2539 223.387 33.1562 223.855 32.1797C224.332 31.2031 225 30.4453 225.859 29.9062C226.727 29.3594 227.707 29.0859 228.801 29.0859C230.488 29.0859 231.855 29.6797 232.902 30.8672C233.949 32.0469 234.473 33.6133 234.473 35.5664V35.8594C234.473 37.0859 234.234 38.1914 233.758 39.1758C233.289 40.1523 232.625 40.9062 231.766 41.4375C230.906 41.9688 229.926 42.2344 228.824 42.2344C227.145 42.2344 225.777 41.6445 224.723 40.4648C223.676 39.2773 223.152 37.707 223.152 35.7539V35.4727ZM224.559 35.8594C224.559 37.375 224.949 38.6211 225.73 39.5977C226.52 40.5664 227.551 41.0508 228.824 41.0508C230.09 41.0508 231.113 40.5664 231.895 39.5977C232.684 38.6211 233.078 37.3359 233.078 35.7422V35.4727C233.078 34.5039 232.898 33.6172 232.539 32.8125C232.18 32.0078 231.676 31.3867 231.027 30.9492C230.379 30.5039 229.637 30.2812 228.801 30.2812C227.551 30.2812 226.531 30.7734 225.742 31.7578C224.953 32.7344 224.559 34.0156 224.559 35.6016V35.8594ZM239.559 26.0742V29.3203H242.184V30.4688H239.559V38.918C239.559 39.6211 239.684 40.1445 239.934 40.4883C240.191 40.832 240.617 41.0039 241.211 41.0039C241.445 41.0039 241.824 40.9648 242.348 40.8867L242.406 42.0352C242.039 42.168 241.539 42.2344 240.906 42.2344C239.945 42.2344 239.246 41.957 238.809 41.4023C238.371 40.8398 238.152 40.0156 238.152 38.9297V30.4688H235.82V29.3203H238.152V26.0742H239.559ZM250 42.2344C248.922 42.2344 247.945 41.9688 247.07 41.4375C246.203 40.9062 245.527 40.168 245.043 39.2227C244.559 38.2695 244.316 37.2031 244.316 36.0234V35.5195C244.316 34.3008 244.551 33.2031 245.02 32.2266C245.496 31.25 246.156 30.4844 247 29.9297C247.844 29.3672 248.758 29.0859 249.742 29.0859C251.281 29.0859 252.5 29.6133 253.398 30.668C254.305 31.7148 254.758 33.1484 254.758 34.9688V35.7539H245.711V36.0234C245.711 37.4609 246.121 38.6602 246.941 39.6211C247.77 40.5742 248.809 41.0508 250.059 41.0508C250.809 41.0508 251.469 40.9141 252.039 40.6406C252.617 40.3672 253.141 39.9297 253.609 39.3281L254.488 39.9961C253.457 41.4883 251.961 42.2344 250 42.2344ZM249.742 30.2812C248.688 30.2812 247.797 30.668 247.07 31.4414C246.352 32.2148 245.914 33.2539 245.758 34.5586H253.363V34.4062C253.324 33.1875 252.977 32.1953 252.32 31.4297C251.664 30.6641 250.805 30.2812 249.742 30.2812ZM267.695 35.7891C267.695 37.7656 267.258 39.3359 266.383 40.5C265.508 41.6562 264.332 42.2344 262.855 42.2344C261.09 42.2344 259.754 41.5781 258.848 40.2656L258.789 42H257.477V24H258.871V31.1602C259.762 29.7773 261.082 29.0859 262.832 29.0859C264.332 29.0859 265.516 29.6602 266.383 30.8086C267.258 31.9492 267.695 33.5391 267.695 35.5781V35.7891ZM266.289 35.543C266.289 33.8711 265.965 32.582 265.316 31.6758C264.668 30.7617 263.754 30.3047 262.574 30.3047C261.676 30.3047 260.914 30.5273 260.289 30.9727C259.664 31.4102 259.191 32.0547 258.871 32.9062V38.625C259.574 40.2188 260.816 41.0156 262.598 41.0156C263.754 41.0156 264.656 40.5586 265.305 39.6445C265.961 38.7305 266.289 37.3633 266.289 35.543ZM270.027 35.4727C270.027 34.2539 270.262 33.1562 270.73 32.1797C271.207 31.2031 271.875 30.4453 272.734 29.9062C273.602 29.3594 274.582 29.0859 275.676 29.0859C277.363 29.0859 278.73 29.6797 279.777 30.8672C280.824 32.0469 281.348 33.6133 281.348 35.5664V35.8594C281.348 37.0859 281.109 38.1914 280.633 39.1758C280.164 40.1523 279.5 40.9062 278.641 41.4375C277.781 41.9688 276.801 42.2344 275.699 42.2344C274.02 42.2344 272.652 41.6445 271.598 40.4648C270.551 39.2773 270.027 37.707 270.027 35.7539V35.4727ZM271.434 35.8594C271.434 37.375 271.824 38.6211 272.605 39.5977C273.395 40.5664 274.426 41.0508 275.699 41.0508C276.965 41.0508 277.988 40.5664 278.77 39.5977C279.559 38.6211 279.953 37.3359 279.953 35.7422V35.4727C279.953 34.5039 279.773 33.6172 279.414 32.8125C279.055 32.0078 278.551 31.3867 277.902 30.9492C277.254 30.5039 276.512 30.2812 275.676 30.2812C274.426 30.2812 273.406 30.7734 272.617 31.7578C271.828 32.7344 271.434 34.0156 271.434 35.6016V35.8594ZM283.48 35.4727C283.48 34.2539 283.715 33.1562 284.184 32.1797C284.66 31.2031 285.328 30.4453 286.188 29.9062C287.055 29.3594 288.035 29.0859 289.129 29.0859C290.816 29.0859 292.184 29.6797 293.23 30.8672C294.277 32.0469 294.801 33.6133 294.801 35.5664V35.8594C294.801 37.0859 294.562 38.1914 294.086 39.1758C293.617 40.1523 292.953 40.9062 292.094 41.4375C291.234 41.9688 290.254 42.2344 289.152 42.2344C287.473 42.2344 286.105 41.6445 285.051 40.4648C284.004 39.2773 283.48 37.707 283.48 35.7539V35.4727ZM284.887 35.8594C284.887 37.375 285.277 38.6211 286.059 39.5977C286.848 40.5664 287.879 41.0508 289.152 41.0508C290.418 41.0508 291.441 40.5664 292.223 39.5977C293.012 38.6211 293.406 37.3359 293.406 35.7422V35.4727C293.406 34.5039 293.227 33.6172 292.867 32.8125C292.508 32.0078 292.004 31.3867 291.355 30.9492C290.707 30.5039 289.965 30.2812 289.129 30.2812C287.879 30.2812 286.859 30.7734 286.07 31.7578C285.281 32.7344 284.887 34.0156 284.887 35.6016V35.8594ZM300.719 35.6133L299.113 37.1602V42H297.707V24H299.113V35.5195L300.438 34.0898L305.289 29.3203H307.059L301.68 34.6641L307.527 42H305.852L300.719 35.6133Z" fill="white"/>
<path d="M169.787 4.69992C167.609 2.26157 164.612 0.918823 161.347 0.918823C158.794 0.918823 156.041 2.43751 154.029 3.54712C153.297 3.95135 152.296 4.50399 152 4.54037C151.705 4.50461 150.709 3.95341 149.978 3.54929C147.972 2.43916 145.224 0.918823 142.654 0.918823C139.388 0.918823 136.391 2.26157 134.213 4.69992C132.141 7.01964 131 10.0731 131 13.2977C131 17.9043 132.654 24.4552 135.425 30.822C136.658 33.6547 137.97 36.1024 139.219 37.9006C140.707 40.0409 141.983 41.0811 143.122 41.0811C143.627 41.0811 144.552 40.8669 145.071 39.4314C145.576 38.0365 146.029 36.4353 146.511 34.737C147.784 30.2427 149.368 24.6491 151.92 24.6491H152.081C153.215 24.6491 154.23 25.6206 155.184 27.6192C156.13 29.599 156.848 32.2317 157.544 34.7808C158.004 36.466 158.439 38.0575 158.927 39.4276C159.436 40.8542 160.35 41.0675 160.851 41.0679C161.984 41.0677 163.259 40.0115 164.75 37.8389C165.996 36.0222 167.311 33.5502 168.552 30.6901C171.337 24.272 173 17.7703 173 13.2976C173 10.073 171.859 7.01953 169.787 4.69992ZM160.559 8.0067C160.533 8.00495 157.896 7.8787 155.495 7.24288C154.412 6.95625 153.132 6.38032 153.132 6.20943C153.132 6.04308 154.523 5.23329 154.858 5.04818C156.705 4.02906 159.235 2.63333 161.347 2.63333C167.568 2.63333 171.285 8.05556 171.285 13.2977C171.285 17.4843 169.636 23.8872 166.979 30.0075C165.799 32.7288 164.505 35.1656 163.336 36.8688C161.988 38.834 161.115 39.4053 160.851 39.3532C160.689 39.3212 160.669 39.2062 160.542 38.8518C160.075 37.5416 159.649 35.9801 159.198 34.3268C158.483 31.7079 157.744 28.9996 156.732 26.8802C155.464 24.225 153.942 22.9343 152.081 22.9343H151.92C150.126 22.9343 148.64 24.2147 147.376 26.8486C146.368 28.9508 145.602 31.6547 144.861 34.2696C144.389 35.9357 143.943 37.5096 143.459 38.8482C143.352 39.1437 143.319 39.3366 143.122 39.3665C142.967 39.39 142.307 39.3388 140.627 36.922C139.458 35.2394 138.169 32.8301 136.997 30.1378C134.355 24.0678 132.715 17.6151 132.715 13.2976C132.715 8.05546 136.432 2.63323 142.654 2.63323C144.271 2.63323 146.396 3.37005 148.338 4.60427C148.623 4.78536 149.024 5.09363 149.412 5.39191C149.567 5.51095 149.719 5.62814 149.861 5.73502C150.317 6.07606 150.932 6.52203 151.655 6.94739C151.963 7.1292 152.346 7.35553 152.753 7.52827C154.31 8.18913 155.961 8.5242 157.659 8.5242C159.39 8.5242 160.554 8.21634 160.566 8.21273C160.566 8.21273 160.826 8.14389 160.818 8.07617C160.81 8.00846 160.559 8.0067 160.559 8.0067Z" fill="white"/>
</svg>
