<?xml version="1.0" encoding="utf-8"?>
<!-- Generator: Adobe Illustrator 25.2.0, SVG Export Plug-In . SVG Version: 6.00 Build 0)  -->
<svg version="1.1" id="Layer_1" xmlns="http://www.w3.org/2000/svg" xmlns:xlink="http://www.w3.org/1999/xlink" x="0px" y="0px"
	 viewBox="0 0 285.9 45.6" style="enable-background:new 0 0 285.9 45.6;" xml:space="preserve">
<style type="text/css">
	.st0{fill:#FFFFFF;}
</style>
<path class="st0" d="M7.9,43.5V26.5h4.8c1.4,0,2.7,0.3,3.8,1c1.1,0.6,2,1.5,2.6,2.7c0.6,1.2,0.9,2.5,0.9,4.1v1.6
	c0,1.5-0.3,2.9-0.9,4.1c-0.6,1.2-1.5,2.1-2.6,2.7c-1.1,0.6-2.4,1-3.9,1H7.9z M9.4,27.7v14.6h3.2c1.8,0,3.2-0.6,4.3-1.8
	c1.1-1.2,1.6-2.8,1.6-4.8v-1.5c0-2-0.5-3.5-1.6-4.7c-1.1-1.2-2.5-1.8-4.2-1.8H9.4z M44.8,35.4h-8v7H46v1.2H35.3V26.5h10.6v1.2h-9.1
	v6.4h8V35.4z M73.4,43.5h-1.4l-9.8-14.6v14.6h-1.5V26.5h1.5l9.8,14.6V26.5h1.4V43.5z M100.5,27.7h-5.8v15.8h-1.4V27.7h-5.8v-1.2
	h13.1V27.7z M150.9,42.3h8.4v1.2h-9.9V26.5h1.5V42.3z M192.3,43.5h-1.4l-9.8-14.6v14.6h-1.5V26.5h1.5l9.8,14.6V26.5h1.4V43.5z
	 M195.6,37c0-1.2,0.2-2.3,0.7-3.3c0.5-1,1.1-1.7,2-2.3c0.9-0.5,1.8-0.8,2.9-0.8c1.7,0,3.1,0.6,4.1,1.8c1,1.2,1.6,2.7,1.6,4.7v0.3
	c0,1.2-0.2,2.3-0.7,3.3c-0.5,1-1.1,1.7-2,2.3c-0.9,0.5-1.8,0.8-2.9,0.8c-1.7,0-3-0.6-4.1-1.8c-1-1.2-1.6-2.8-1.6-4.7V37z M197,37.4
	c0,1.5,0.4,2.8,1.2,3.7c0.8,1,1.8,1.5,3.1,1.5c1.3,0,2.3-0.5,3.1-1.5c0.8-1,1.2-2.3,1.2-3.9V37c0-1-0.2-1.9-0.5-2.7
	c-0.4-0.8-0.9-1.4-1.5-1.9c-0.6-0.4-1.4-0.7-2.2-0.7c-1.2,0-2.3,0.5-3.1,1.5c-0.8,1-1.2,2.3-1.2,3.8V37.4z M212,27.6v3.2h2.6V32H212
	v8.4c0,0.7,0.1,1.2,0.4,1.6c0.3,0.3,0.7,0.5,1.3,0.5c0.2,0,0.6,0,1.1-0.1l0.1,1.1c-0.4,0.1-0.9,0.2-1.5,0.2c-1,0-1.7-0.3-2.1-0.8
	c-0.4-0.6-0.7-1.4-0.7-2.5V32h-2.3v-1.1h2.3v-3.2H212z M222.4,43.8c-1.1,0-2.1-0.3-2.9-0.8c-0.9-0.5-1.5-1.3-2-2.2
	c-0.5-1-0.7-2-0.7-3.2v-0.5c0-1.2,0.2-2.3,0.7-3.3c0.5-1,1.1-1.7,2-2.3c0.8-0.6,1.8-0.8,2.7-0.8c1.5,0,2.8,0.5,3.7,1.6
	c0.9,1,1.4,2.5,1.4,4.3v0.8h-9v0.3c0,1.4,0.4,2.6,1.2,3.6c0.8,1,1.9,1.4,3.1,1.4c0.8,0,1.4-0.1,2-0.4c0.6-0.3,1.1-0.7,1.6-1.3
	l0.9,0.7C225.9,43,224.4,43.8,222.4,43.8z M222.2,31.8c-1.1,0-1.9,0.4-2.7,1.2c-0.7,0.8-1.2,1.8-1.3,3.1h7.6v-0.2c0-1.2-0.4-2.2-1-3
	C224.1,32.2,223.2,31.8,222.2,31.8z M240.1,37.3c0,2-0.4,3.5-1.3,4.7c-0.9,1.2-2.1,1.7-3.5,1.7c-1.8,0-3.1-0.7-4-2l-0.1,1.7h-1.3
	v-18h1.4v7.2c0.9-1.4,2.2-2.1,4-2.1c1.5,0,2.7,0.6,3.6,1.7c0.9,1.1,1.3,2.7,1.3,4.8V37.3z M238.7,37.1c0-1.7-0.3-3-1-3.9
	c-0.6-0.9-1.6-1.4-2.7-1.4c-0.9,0-1.7,0.2-2.3,0.7c-0.6,0.4-1.1,1.1-1.4,1.9v5.7c0.7,1.6,1.9,2.4,3.7,2.4c1.2,0,2.1-0.5,2.7-1.4
	C238.4,40.3,238.7,38.9,238.7,37.1z M242.5,37c0-1.2,0.2-2.3,0.7-3.3c0.5-1,1.1-1.7,2-2.3c0.9-0.5,1.8-0.8,2.9-0.8
	c1.7,0,3.1,0.6,4.1,1.8c1,1.2,1.6,2.7,1.6,4.7v0.3c0,1.2-0.2,2.3-0.7,3.3c-0.5,1-1.1,1.7-2,2.3c-0.9,0.5-1.8,0.8-2.9,0.8
	c-1.7,0-3-0.6-4.1-1.8c-1-1.2-1.6-2.8-1.6-4.7V37z M243.9,37.4c0,1.5,0.4,2.8,1.2,3.7c0.8,1,1.8,1.5,3.1,1.5c1.3,0,2.3-0.5,3.1-1.5
	c0.8-1,1.2-2.3,1.2-3.9V37c0-1-0.2-1.9-0.5-2.7s-0.9-1.4-1.5-1.9c-0.6-0.4-1.4-0.7-2.2-0.7c-1.2,0-2.3,0.5-3.1,1.5
	c-0.8,1-1.2,2.3-1.2,3.8V37.4z M255.9,37c0-1.2,0.2-2.3,0.7-3.3c0.5-1,1.1-1.7,2-2.3c0.9-0.5,1.8-0.8,2.9-0.8c1.7,0,3.1,0.6,4.1,1.8
	c1,1.2,1.6,2.7,1.6,4.7v0.3c0,1.2-0.2,2.3-0.7,3.3c-0.5,1-1.1,1.7-2,2.3c-0.9,0.5-1.8,0.8-2.9,0.8c-1.7,0-3-0.6-4.1-1.8
	c-1-1.2-1.6-2.8-1.6-4.7V37z M257.3,37.4c0,1.5,0.4,2.8,1.2,3.7c0.8,1,1.8,1.5,3.1,1.5c1.3,0,2.3-0.5,3.1-1.5c0.8-1,1.2-2.3,1.2-3.9
	V37c0-1-0.2-1.9-0.5-2.7c-0.4-0.8-0.9-1.4-1.5-1.9c-0.6-0.4-1.4-0.7-2.2-0.7c-1.2,0-2.3,0.5-3.1,1.5c-0.8,1-1.2,2.3-1.2,3.8V37.4z
	 M273.1,37.2l-1.6,1.5v4.8h-1.4v-18h1.4v11.5l1.3-1.4l4.9-4.8h1.8l-5.4,5.3l5.8,7.3h-1.7L273.1,37.2z"/>
<path class="st0" d="M142.2,6.2c-2.2-2.4-5.2-3.8-8.4-3.8c-2.6,0-5.3,1.5-7.3,2.6c-0.7,0.4-1.7,1-2,1c-0.3,0-1.3-0.6-2-1
	c-2-1.1-4.8-2.6-7.3-2.6c-3.3,0-6.3,1.3-8.4,3.8c-2.1,2.3-3.2,5.4-3.2,8.6c0,4.6,1.7,11.2,4.4,17.5c1.2,2.8,2.5,5.3,3.8,7.1
	c1.5,2.1,2.8,3.2,3.9,3.2c0.5,0,1.4-0.2,1.9-1.6c0.5-1.4,1-3,1.4-4.7c1.3-4.5,2.9-10.1,5.4-10.1h0.2c1.1,0,2.1,1,3.1,3
	c0.9,2,1.7,4.6,2.4,7.2c0.5,1.7,0.9,3.3,1.4,4.6c0.5,1.4,1.4,1.6,1.9,1.6c1.1,0,2.4-1.1,3.9-3.2c1.2-1.8,2.6-4.3,3.8-7.1
	c2.8-6.4,4.4-12.9,4.4-17.4C145.4,11.6,144.3,8.6,142.2,6.2z M133,9.5c0,0-2.7-0.1-5.1-0.8c-1.1-0.3-2.4-0.9-2.4-1
	c0-0.2,1.4-1,1.7-1.2c1.8-1,4.4-2.4,6.5-2.4c6.2,0,9.9,5.4,9.9,10.7c0,4.2-1.6,10.6-4.3,16.7c-1.2,2.7-2.5,5.2-3.6,6.9
	c-1.3,2-2.2,2.5-2.5,2.5c-0.2,0-0.2-0.1-0.3-0.5c-0.5-1.3-0.9-2.9-1.3-4.5c-0.7-2.6-1.5-5.3-2.5-7.4c-1.3-2.7-2.8-3.9-4.7-3.9h-0.2
	c-1.8,0-3.3,1.3-4.5,3.9c-1,2.1-1.8,4.8-2.5,7.4c-0.5,1.7-0.9,3.2-1.4,4.6c-0.1,0.3-0.1,0.5-0.3,0.5c-0.2,0-0.8,0-2.5-2.4
	c-1.2-1.7-2.5-4.1-3.6-6.8c-2.6-6.1-4.3-12.5-4.3-16.8c0-5.2,3.7-10.7,9.9-10.7c1.6,0,3.7,0.7,5.7,2c0.3,0.2,0.7,0.5,1.1,0.8
	c0.2,0.1,0.3,0.2,0.4,0.3c0.5,0.3,1.1,0.8,1.8,1.2c0.3,0.2,0.7,0.4,1.1,0.6c1.6,0.7,3.2,1,4.9,1c1.7,0,2.9-0.3,2.9-0.3
	c0,0,0.3-0.1,0.3-0.1C133.2,9.5,133,9.5,133,9.5z"/>
</svg>
