<svg width="414" height="105" viewBox="0 0 414 105" fill="none" xmlns="http://www.w3.org/2000/svg">
<rect width="414" height="100" fill="#25A4CC"/>
<path d="M71.5117 81V63.9375H76.2812C77.6797 63.9375 78.9336 64.2578 80.043 64.8984C81.1523 65.5312 82.0156 66.4414 82.6328 67.6289C83.2578 68.8164 83.5703 70.168 83.5703 71.6836V73.2539C83.5703 74.7773 83.2617 76.1289 82.6445 77.3086C82.0273 78.4883 81.1562 79.3984 80.0312 80.0391C78.9141 80.6797 77.6289 81 76.1758 81H71.5117ZM72.9531 65.168V79.7812H76.1875C77.9844 79.7812 79.4258 79.1875 80.5117 78C81.5977 76.8047 82.1406 75.1914 82.1406 73.1602V71.6602C82.1406 69.6992 81.6055 68.1289 80.5352 66.9492C79.4648 65.7695 78.0547 65.1758 76.3047 65.168H72.9531ZM108.332 72.8203H100.352V79.7812H109.527V81H98.9102V63.9375H109.469V65.168H100.352V71.6016H108.332V72.8203ZM136.949 81H135.508L125.699 66.3984V81H124.246V63.9375H125.699L135.52 78.5508V63.9375H136.949V81ZM164.066 65.168H158.219V81H156.777V65.168H150.941V63.9375H164.066V65.168ZM214.504 79.7812H222.93V81H213.051V63.9375H214.504V79.7812ZM255.918 81H254.477L244.668 66.3984V81H243.215V63.9375H244.668L254.488 78.5508V63.9375H255.918V81ZM259.152 74.4727C259.152 73.2539 259.387 72.1562 259.855 71.1797C260.332 70.2031 261 69.4453 261.859 68.9062C262.727 68.3594 263.707 68.0859 264.801 68.0859C266.488 68.0859 267.855 68.6797 268.902 69.8672C269.949 71.0469 270.473 72.6133 270.473 74.5664V74.8594C270.473 76.0859 270.234 77.1914 269.758 78.1758C269.289 79.1523 268.625 79.9062 267.766 80.4375C266.906 80.9688 265.926 81.2344 264.824 81.2344C263.145 81.2344 261.777 80.6445 260.723 79.4648C259.676 78.2773 259.152 76.707 259.152 74.7539V74.4727ZM260.559 74.8594C260.559 76.375 260.949 77.6211 261.73 78.5977C262.52 79.5664 263.551 80.0508 264.824 80.0508C266.09 80.0508 267.113 79.5664 267.895 78.5977C268.684 77.6211 269.078 76.3359 269.078 74.7422V74.4727C269.078 73.5039 268.898 72.6172 268.539 71.8125C268.18 71.0078 267.676 70.3867 267.027 69.9492C266.379 69.5039 265.637 69.2812 264.801 69.2812C263.551 69.2812 262.531 69.7734 261.742 70.7578C260.953 71.7344 260.559 73.0156 260.559 74.6016V74.8594ZM275.559 65.0742V68.3203H278.184V69.4688H275.559V77.918C275.559 78.6211 275.684 79.1445 275.934 79.4883C276.191 79.832 276.617 80.0039 277.211 80.0039C277.445 80.0039 277.824 79.9648 278.348 79.8867L278.406 81.0352C278.039 81.168 277.539 81.2344 276.906 81.2344C275.945 81.2344 275.246 80.957 274.809 80.4023C274.371 79.8398 274.152 79.0156 274.152 77.9297V69.4688H271.82V68.3203H274.152V65.0742H275.559ZM286 81.2344C284.922 81.2344 283.945 80.9688 283.07 80.4375C282.203 79.9062 281.527 79.168 281.043 78.2227C280.559 77.2695 280.316 76.2031 280.316 75.0234V74.5195C280.316 73.3008 280.551 72.2031 281.02 71.2266C281.496 70.25 282.156 69.4844 283 68.9297C283.844 68.3672 284.758 68.0859 285.742 68.0859C287.281 68.0859 288.5 68.6133 289.398 69.668C290.305 70.7148 290.758 72.1484 290.758 73.9688V74.7539H281.711V75.0234C281.711 76.4609 282.121 77.6602 282.941 78.6211C283.77 79.5742 284.809 80.0508 286.059 80.0508C286.809 80.0508 287.469 79.9141 288.039 79.6406C288.617 79.3672 289.141 78.9297 289.609 78.3281L290.488 78.9961C289.457 80.4883 287.961 81.2344 286 81.2344ZM285.742 69.2812C284.688 69.2812 283.797 69.668 283.07 70.4414C282.352 71.2148 281.914 72.2539 281.758 73.5586H289.363V73.4062C289.324 72.1875 288.977 71.1953 288.32 70.4297C287.664 69.6641 286.805 69.2812 285.742 69.2812ZM303.695 74.7891C303.695 76.7656 303.258 78.3359 302.383 79.5C301.508 80.6562 300.332 81.2344 298.855 81.2344C297.09 81.2344 295.754 80.5781 294.848 79.2656L294.789 81H293.477V63H294.871V70.1602C295.762 68.7773 297.082 68.0859 298.832 68.0859C300.332 68.0859 301.516 68.6602 302.383 69.8086C303.258 70.9492 303.695 72.5391 303.695 74.5781V74.7891ZM302.289 74.543C302.289 72.8711 301.965 71.582 301.316 70.6758C300.668 69.7617 299.754 69.3047 298.574 69.3047C297.676 69.3047 296.914 69.5273 296.289 69.9727C295.664 70.4102 295.191 71.0547 294.871 71.9062V77.625C295.574 79.2188 296.816 80.0156 298.598 80.0156C299.754 80.0156 300.656 79.5586 301.305 78.6445C301.961 77.7305 302.289 76.3633 302.289 74.543ZM306.027 74.4727C306.027 73.2539 306.262 72.1562 306.73 71.1797C307.207 70.2031 307.875 69.4453 308.734 68.9062C309.602 68.3594 310.582 68.0859 311.676 68.0859C313.363 68.0859 314.73 68.6797 315.777 69.8672C316.824 71.0469 317.348 72.6133 317.348 74.5664V74.8594C317.348 76.0859 317.109 77.1914 316.633 78.1758C316.164 79.1523 315.5 79.9062 314.641 80.4375C313.781 80.9688 312.801 81.2344 311.699 81.2344C310.02 81.2344 308.652 80.6445 307.598 79.4648C306.551 78.2773 306.027 76.707 306.027 74.7539V74.4727ZM307.434 74.8594C307.434 76.375 307.824 77.6211 308.605 78.5977C309.395 79.5664 310.426 80.0508 311.699 80.0508C312.965 80.0508 313.988 79.5664 314.77 78.5977C315.559 77.6211 315.953 76.3359 315.953 74.7422V74.4727C315.953 73.5039 315.773 72.6172 315.414 71.8125C315.055 71.0078 314.551 70.3867 313.902 69.9492C313.254 69.5039 312.512 69.2812 311.676 69.2812C310.426 69.2812 309.406 69.7734 308.617 70.7578C307.828 71.7344 307.434 73.0156 307.434 74.6016V74.8594ZM319.48 74.4727C319.48 73.2539 319.715 72.1562 320.184 71.1797C320.66 70.2031 321.328 69.4453 322.188 68.9062C323.055 68.3594 324.035 68.0859 325.129 68.0859C326.816 68.0859 328.184 68.6797 329.23 69.8672C330.277 71.0469 330.801 72.6133 330.801 74.5664V74.8594C330.801 76.0859 330.562 77.1914 330.086 78.1758C329.617 79.1523 328.953 79.9062 328.094 80.4375C327.234 80.9688 326.254 81.2344 325.152 81.2344C323.473 81.2344 322.105 80.6445 321.051 79.4648C320.004 78.2773 319.48 76.707 319.48 74.7539V74.4727ZM320.887 74.8594C320.887 76.375 321.277 77.6211 322.059 78.5977C322.848 79.5664 323.879 80.0508 325.152 80.0508C326.418 80.0508 327.441 79.5664 328.223 78.5977C329.012 77.6211 329.406 76.3359 329.406 74.7422V74.4727C329.406 73.5039 329.227 72.6172 328.867 71.8125C328.508 71.0078 328.004 70.3867 327.355 69.9492C326.707 69.5039 325.965 69.2812 325.129 69.2812C323.879 69.2812 322.859 69.7734 322.07 70.7578C321.281 71.7344 320.887 73.0156 320.887 74.6016V74.8594ZM336.719 74.6133L335.113 76.1602V81H333.707V63H335.113V74.5195L336.438 73.0898L341.289 68.3203H343.059L337.68 73.6641L343.527 81H341.852L336.719 74.6133Z" fill="white"/>
<path d="M205.787 43.6999C203.609 41.2616 200.612 39.9188 197.347 39.9188C194.794 39.9188 192.041 41.4375 190.029 42.5471C189.297 42.9513 188.296 43.504 188 43.5404C187.705 43.5046 186.709 42.9534 185.978 42.5493C183.972 41.4392 181.224 39.9188 178.654 39.9188C175.388 39.9188 172.391 41.2616 170.213 43.6999C168.141 46.0196 167 49.0731 167 52.2977C167 56.9043 168.654 63.4552 171.425 69.822C172.658 72.6547 173.97 75.1024 175.219 76.9006C176.707 79.0409 177.983 80.0811 179.122 80.0811C179.627 80.0811 180.552 79.8669 181.071 78.4314C181.576 77.0365 182.029 75.4353 182.511 73.737C183.784 69.2427 185.368 63.6491 187.92 63.6491H188.081C189.215 63.6491 190.23 64.6206 191.184 66.6192C192.13 68.599 192.848 71.2317 193.544 73.7808C194.004 75.466 194.439 77.0575 194.927 78.4276C195.436 79.8542 196.35 80.0675 196.851 80.0679C197.984 80.0677 199.259 79.0115 200.75 76.8389C201.996 75.0222 203.311 72.5502 204.552 69.6901C207.337 63.272 209 56.7703 209 52.2976C209 49.073 207.859 46.0195 205.787 43.6999ZM196.559 47.0067C196.533 47.005 193.896 46.8787 191.495 46.2429C190.412 45.9563 189.132 45.3803 189.132 45.2094C189.132 45.0431 190.523 44.2333 190.858 44.0482C192.705 43.0291 195.235 41.6333 197.347 41.6333C203.568 41.6333 207.285 47.0556 207.285 52.2977C207.285 56.4843 205.636 62.8872 202.979 69.0075C201.799 71.7288 200.505 74.1656 199.336 75.8688C197.988 77.834 197.115 78.4053 196.851 78.3532C196.689 78.3212 196.669 78.2062 196.542 77.8518C196.075 76.5416 195.649 74.9801 195.198 73.3268C194.483 70.7079 193.744 67.9996 192.732 65.8802C191.464 63.225 189.942 61.9343 188.081 61.9343H187.92C186.126 61.9343 184.64 63.2147 183.376 65.8486C182.368 67.9508 181.602 70.6547 180.861 73.2696C180.389 74.9357 179.943 76.5096 179.459 77.8482C179.352 78.1437 179.319 78.3366 179.122 78.3665C178.967 78.39 178.307 78.3388 176.627 75.922C175.458 74.2394 174.169 71.8301 172.997 69.1378C170.355 63.0678 168.715 56.6151 168.715 52.2976C168.715 47.0555 172.432 41.6332 178.654 41.6332C180.271 41.6332 182.396 42.3701 184.338 43.6043C184.623 43.7854 185.024 44.0936 185.412 44.3919C185.567 44.5109 185.719 44.6281 185.861 44.735C186.317 45.0761 186.932 45.522 187.655 45.9474C187.963 46.1292 188.346 46.3555 188.753 46.5283C190.31 47.1891 191.961 47.5242 193.659 47.5242C195.39 47.5242 196.554 47.2163 196.566 47.2127C196.566 47.2127 196.826 47.1439 196.818 47.0762C196.81 47.0085 196.559 47.0067 196.559 47.0067Z" fill="white"/>
</svg>
