<svg width="18" height="26" viewBox="0 0 18 26" fill="none" xmlns="http://www.w3.org/2000/svg">
<path d="M9 18.6875C13.0386 18.6875 16.3125 17.1765 16.3125 15.3125C16.3125 13.4485 13.0386 11.9375 9 11.9375C4.96142 11.9375 1.6875 13.4485 1.6875 15.3125C1.6875 17.1765 4.96142 18.6875 9 18.6875Z" stroke="white" stroke-width="1.5" stroke-linecap="round" stroke-linejoin="round"/>
<path d="M9 18.6875V22.0625" stroke="white" stroke-width="1.5" stroke-linecap="round" stroke-linejoin="round"/>
<path d="M1.6875 15.3125V18.6875C1.6875 20.375 4.5 22.0625 9 22.0625C13.5 22.0625 16.3125 20.375 16.3125 18.6875V15.3125" stroke="white" stroke-width="1.5" stroke-linecap="round" stroke-linejoin="round"/>
<path d="M13.5 17.9919V21.3669" stroke="white" stroke-width="1.5" stroke-linecap="round" stroke-linejoin="round"/>
<path d="M4.5 17.9919V21.3669" stroke="white" stroke-width="1.5" stroke-linecap="round" stroke-linejoin="round"/>
<path d="M9 10.6875C13.0386 10.6875 16.3125 9.17646 16.3125 7.3125C16.3125 5.44854 13.0386 3.9375 9 3.9375C4.96142 3.9375 1.6875 5.44854 1.6875 7.3125C1.6875 9.17646 4.96142 10.6875 9 10.6875Z" stroke="white" stroke-width="1.5" stroke-linecap="round" stroke-linejoin="round"/>
<path d="M9 10.6875V14.0625" stroke="white" stroke-width="1.5" stroke-linecap="round" stroke-linejoin="round"/>
<path d="M1.6875 7.3125V10.6875C1.6875 12.375 4.5 14.0625 9 14.0625C13.5 14.0625 16.3125 12.375 16.3125 10.6875V7.3125" stroke="white" stroke-width="1.5" stroke-linecap="round" stroke-linejoin="round"/>
<path d="M13.5 9.99188V13.3669" stroke="white" stroke-width="1.5" stroke-linecap="round" stroke-linejoin="round"/>
<path d="M4.5 9.99188V13.3669" stroke="white" stroke-width="1.5" stroke-linecap="round" stroke-linejoin="round"/>
</svg>
