<svg width="20" height="20" viewBox="0 0 20 20" fill="none" xmlns="http://www.w3.org/2000/svg">
<path d="M6.87503 12.5C9.11869 12.5 10.9375 10.6812 10.9375 8.4375C10.9375 6.19384 9.11869 4.375 6.87503 4.375C4.63137 4.375 2.81253 6.19384 2.81253 8.4375C2.81253 10.6812 4.63137 12.5 6.87503 12.5Z" stroke="white" stroke-linecap="round" stroke-linejoin="round"/>
<path d="M12.1416 4.52631C12.7004 4.36888 13.2864 4.33302 13.8602 4.42114C14.434 4.50925 14.9822 4.71931 15.468 5.03716C15.9538 5.355 16.3658 5.77326 16.6763 6.26375C16.9868 6.75424 17.1886 7.30558 17.2681 7.88063C17.3476 8.45568 17.303 9.04109 17.1372 9.59743C16.9714 10.1538 16.6883 10.6681 16.307 11.1058C15.9256 11.5436 15.4549 11.8945 14.9266 12.135C14.3982 12.3754 13.8244 12.4999 13.2439 12.5" stroke="white" stroke-linecap="round" stroke-linejoin="round"/>
<path d="M1.24969 15.4216C1.88417 14.5191 2.72649 13.7825 3.70552 13.274C4.68454 12.7655 5.77155 12.5 6.87476 12.5C7.97797 12.5 9.065 12.7654 10.0441 13.2738C11.0231 13.7822 11.8655 14.5187 12.5 15.4212" stroke="white" stroke-linecap="round" stroke-linejoin="round"/>
<path d="M13.2439 12.5C14.3472 12.4992 15.4345 12.7643 16.4136 13.2728C17.3928 13.7813 18.235 14.5182 18.8689 15.4212" stroke="white" stroke-linecap="round" stroke-linejoin="round"/>
</svg>
