<svg width="60" height="60" viewBox="0 0 60 60" fill="none" xmlns="http://www.w3.org/2000/svg">
<path d="M20.625 37.5C27.356 37.5 32.8125 32.0435 32.8125 25.3125C32.8125 18.5815 27.356 13.125 20.625 13.125C13.894 13.125 8.4375 18.5815 8.4375 25.3125C8.4375 32.0435 13.894 37.5 20.625 37.5Z" stroke="#25A4CC" stroke-width="1.5" stroke-linecap="round" stroke-linejoin="round"/>
<path d="M36.4247 13.579C38.101 13.1067 39.8591 12.9991 41.5804 13.2634C43.3018 13.5278 44.9466 14.158 46.4039 15.1115C47.8612 16.065 49.0973 17.3198 50.0288 18.7913C50.9604 20.2628 51.5658 21.9168 51.8043 23.6419C52.0428 25.3671 51.9088 27.1233 51.4114 28.7923C50.914 30.4613 50.0647 32.0044 48.9208 33.3175C47.7768 34.6307 46.3647 35.6835 44.7796 36.4049C43.1945 37.1264 41.4732 37.4998 39.7316 37.5" stroke="#25A4CC" stroke-width="1.5" stroke-linecap="round" stroke-linejoin="round"/>
<path d="M3.74908 46.2648C5.65252 43.5573 8.17946 41.3476 11.1165 39.8221C14.0536 38.2966 17.3146 37.5001 20.6243 37.5C23.9339 37.4999 27.195 38.2961 30.1322 39.8213C33.0694 41.3466 35.5965 43.5562 37.5001 46.2636" stroke="#25A4CC" stroke-width="1.5" stroke-linecap="round" stroke-linejoin="round"/>
<path d="M39.7316 37.5C43.0415 37.4976 46.3033 38.2928 49.2408 39.8183C52.1782 41.3438 54.7048 43.5546 56.6067 46.2636" stroke="#25A4CC" stroke-width="1.5" stroke-linecap="round" stroke-linejoin="round"/>
</svg>
