<svg width="28" height="28" viewBox="0 0 28 28" fill="none" xmlns="http://www.w3.org/2000/svg">
<path d="M10.1376 23.625H5.25C5.01794 23.625 4.79538 23.5328 4.63128 23.3687C4.46719 23.2046 4.375 22.9821 4.375 22.75V17.8624C4.375 17.7475 4.39763 17.6338 4.44161 17.5276C4.48558 17.4214 4.55003 17.325 4.63128 17.2437L17.7563 4.11872C17.9204 3.95463 18.1429 3.86244 18.375 3.86244C18.6071 3.86244 18.8296 3.95463 18.9937 4.11872L23.8813 9.00628C24.0454 9.17038 24.1376 9.39294 24.1376 9.625C24.1376 9.85707 24.0454 10.0796 23.8813 10.2437L10.7563 23.3687C10.675 23.45 10.5786 23.5144 10.4724 23.5584C10.3663 23.6024 10.2525 23.625 10.1376 23.625Z" stroke="#BBBDBD" stroke-width="1.5" stroke-linecap="round" stroke-linejoin="round"/>
<path d="M14.875 6.99999L21 13.125" stroke="#BBBDBD" stroke-width="1.5" stroke-linecap="round" stroke-linejoin="round"/>
<path d="M10.4441 23.5691L4.43066 17.5557" stroke="#BBBDBD" stroke-width="1.5" stroke-linecap="round" stroke-linejoin="round"/>
</svg>
