<svg width="22" height="22" viewBox="0 0 22 22" fill="none" xmlns="http://www.w3.org/2000/svg">
<rect width="22" height="22" rx="11" fill="#FEAA2C"/>
<path d="M16.0806 7.10654L13.269 4.29487C13.1755 4.20139 13.0645 4.12723 12.9424 4.07664C12.8202 4.02604 12.6893 4 12.5571 4C12.4249 4 12.294 4.02604 12.1719 4.07664C12.0497 4.12723 11.9387 4.20139 11.8453 4.29487L10.1878 5.9523L10.1877 5.95239L10.1877 5.95248L4.29491 11.8452C4.20112 11.9385 4.12676 12.0494 4.07614 12.1716C4.02552 12.2938 3.99964 12.4248 4 12.5571V15.3688C4.00031 15.6357 4.10647 15.8916 4.2952 16.0803C4.48393 16.269 4.73982 16.3752 5.00672 16.3755H7.81839C7.95065 16.3758 8.08166 16.35 8.20385 16.2993C8.32604 16.2487 8.43697 16.1744 8.53023 16.0806L16.0806 8.53023C16.2691 8.34128 16.375 8.08528 16.375 7.81838C16.375 7.55148 16.2691 7.29548 16.0806 7.10654ZM14.0672 9.11998L11.2555 6.30831L12.5571 5.00672L15.3688 7.81838L14.0672 9.11998Z" fill="white"/>
</svg>
