<svg width="70" height="70" viewBox="0 0 70 70" fill="none" xmlns="http://www.w3.org/2000/svg">
<path d="M35 6.56198C29.3756 6.56198 23.8775 8.22981 19.201 11.3546C14.5245 14.4793 10.8796 18.9206 8.72719 24.1169C6.57482 29.3132 6.01166 35.031 7.10893 40.5474C8.2062 46.0637 10.9146 51.1308 14.8917 55.1078C18.8687 59.0849 23.9358 61.7933 29.4521 62.8906C34.9685 63.9878 40.6863 63.4247 45.8826 61.2723C51.0788 59.1199 55.5202 55.475 58.6449 50.7985C61.7697 46.122 63.4375 40.6239 63.4375 34.9995C63.4288 27.4601 60.4299 20.2319 55.0987 14.9008C49.7676 9.56958 42.5394 6.5707 35 6.56198ZM45.9375 37.187H37.1875V45.937C37.1875 46.5171 36.957 47.0735 36.5468 47.4838C36.1366 47.894 35.5802 48.1245 35 48.1245C34.4199 48.1245 33.8635 47.894 33.4532 47.4838C33.043 47.0735 32.8125 46.5171 32.8125 45.937V37.187H24.0625C23.4824 37.187 22.926 36.9565 22.5157 36.5463C22.1055 36.136 21.875 35.5796 21.875 34.9995C21.875 34.4193 22.1055 33.8629 22.5157 33.4527C22.926 33.0424 23.4824 32.812 24.0625 32.812H32.8125V24.062C32.8125 23.4818 33.043 22.9254 33.4532 22.5152C33.8635 22.1049 34.4199 21.8745 35 21.8745C35.5802 21.8745 36.1366 22.1049 36.5468 22.5152C36.957 22.9254 37.1875 23.4818 37.1875 24.062V32.812H45.9375C46.5177 32.812 47.0741 33.0424 47.4843 33.4527C47.8945 33.8629 48.125 34.4193 48.125 34.9995C48.125 35.5796 47.8945 36.136 47.4843 36.5463C47.0741 36.9565 46.5177 37.187 45.9375 37.187Z" fill="#3EADCF"/>
</svg>
