<svg width="23" height="23" viewBox="0 0 23 23" fill="none" xmlns="http://www.w3.org/2000/svg">
<path d="M11.5 0.53125C9.33059 0.53125 7.2099 1.17456 5.40609 2.37982C3.60229 3.58508 2.1964 5.29816 1.3662 7.30244C0.536003 9.30672 0.318785 11.5122 0.742016 13.6399C1.16525 15.7676 2.20992 17.7221 3.74393 19.2561C5.27793 20.7901 7.23238 21.8348 9.36011 22.258C11.4878 22.6812 13.6933 22.464 15.6976 21.6338C17.7018 20.8036 19.4149 19.3977 20.6202 17.5939C21.8254 15.7901 22.4688 13.6694 22.4688 11.5C22.4654 8.59194 21.3087 5.80395 19.2524 3.74763C17.1961 1.69132 14.4081 0.534611 11.5 0.53125ZM15.4716 14.2784C15.55 14.3568 15.6123 14.4498 15.6548 14.5522C15.6973 14.6546 15.7192 14.7643 15.7193 14.8752C15.7194 14.9861 15.6976 15.0958 15.6552 15.1983C15.6128 15.3007 15.5506 15.3938 15.4722 15.4722C15.3938 15.5506 15.3007 15.6128 15.1983 15.6552C15.0958 15.6976 14.9861 15.7194 14.8752 15.7193C14.7643 15.7192 14.6546 15.6973 14.5522 15.6548C14.4498 15.6123 14.3568 15.55 14.2784 15.4716L11.5 12.6931L8.72156 15.4716C8.56329 15.6295 8.34879 15.7181 8.12519 15.718C7.90159 15.7179 7.68719 15.629 7.52908 15.4709C7.37097 15.3128 7.2821 15.0984 7.28198 14.8748C7.28186 14.6512 7.37051 14.4367 7.52845 14.2784L10.3069 11.5L7.52845 8.72156C7.37051 8.56328 7.28186 8.34878 7.28198 8.12519C7.2821 7.90159 7.37097 7.68718 7.52908 7.52908C7.68719 7.37097 7.90159 7.28209 8.12519 7.28197C8.34879 7.28186 8.56329 7.3705 8.72156 7.52844L11.5 10.3069L14.2784 7.52844C14.4367 7.3705 14.6512 7.28186 14.8748 7.28197C15.0984 7.28209 15.3128 7.37097 15.4709 7.52908C15.629 7.68718 15.7179 7.90159 15.718 8.12519C15.7181 8.34878 15.6295 8.56328 15.4716 8.72156L12.6931 11.5L15.4716 14.2784Z" fill="#F01717"/>
</svg>
