<?xml version="1.0" encoding="utf-8"?>
<!-- Generator: Adobe Illustrator 22.0.0, SVG Export Plug-In . SVG Version: 6.00 Build 0)  -->
<svg version="1.1" id="Camada_1" xmlns="http://www.w3.org/2000/svg" xmlns:xlink="http://www.w3.org/1999/xlink" x="15px" y="15px"
	 viewBox="0 0 16.1 16.1" style="enable-background:new 0 0 16.1 16.1;" xml:space="preserve">
<style type="text/css">
	.st0{fill:#E1E2E2;}
</style>
<g>
	<path class="st0" d="M1,16.1c-0.3,0-0.5-0.1-0.7-0.3c-0.4-0.4-0.4-1,0-1.4L14.4,0.3c0.4-0.4,1-0.4,1.4,0s0.4,1,0,1.4L1.7,15.8
		C1.5,16,1.3,16.1,1,16.1z"/>
	<path class="st0" d="M15.1,16.1c-0.3,0-0.5-0.1-0.7-0.3L0.3,1.7c-0.4-0.4-0.4-1,0-1.4s1-0.4,1.4,0l14.1,14.1c0.4,0.4,0.4,1,0,1.4
		C15.6,16,15.3,16.1,15.1,16.1z"/>
</g>
</svg>
