<svg width="27" height="27" viewBox="0 0 27 27" fill="none" xmlns="http://www.w3.org/2000/svg">
<path d="M13.5 2.53125C11.3306 2.53125 9.2099 3.17456 7.40609 4.37982C5.60229 5.58508 4.1964 7.29816 3.3662 9.30244C2.536 11.3067 2.31878 13.5122 2.74202 15.6399C3.16525 17.7676 4.20992 19.7221 5.74393 21.2561C7.27793 22.7901 9.23238 23.8348 11.3601 24.258C13.4878 24.6812 15.6933 24.464 17.6976 23.6338C19.7018 22.8036 21.4149 21.3977 22.6202 19.5939C23.8254 17.7901 24.4688 15.6694 24.4688 13.5C24.4654 10.5919 23.3087 7.80395 21.2524 5.74763C19.1961 3.69132 16.4081 2.53461 13.5 2.53125ZM17.4716 16.2784C17.55 16.3568 17.6123 16.4498 17.6548 16.5522C17.6973 16.6546 17.7192 16.7643 17.7193 16.8752C17.7194 16.9861 17.6976 17.0958 17.6552 17.1983C17.6128 17.3007 17.5506 17.3938 17.4722 17.4722C17.3938 17.5506 17.3007 17.6128 17.1983 17.6552C17.0958 17.6976 16.9861 17.7194 16.8752 17.7193C16.7643 17.7192 16.6546 17.6973 16.5522 17.6548C16.4498 17.6123 16.3568 17.55 16.2784 17.4716L13.5 14.6931L10.7216 17.4716C10.5633 17.6295 10.3488 17.7181 10.1252 17.718C9.90159 17.7179 9.68719 17.629 9.52908 17.4709C9.37097 17.3128 9.2821 17.0984 9.28198 16.8748C9.28186 16.6512 9.37051 16.4367 9.52845 16.2784L12.3069 13.5L9.52845 10.7216C9.37051 10.5633 9.28186 10.3488 9.28198 10.1252C9.2821 9.90159 9.37097 9.68718 9.52908 9.52908C9.68719 9.37097 9.90159 9.28209 10.1252 9.28197C10.3488 9.28186 10.5633 9.3705 10.7216 9.52844L13.5 12.3069L16.2784 9.52844C16.4367 9.3705 16.6512 9.28186 16.8748 9.28197C17.0984 9.28209 17.3128 9.37097 17.4709 9.52908C17.629 9.68718 17.7179 9.90159 17.718 10.1252C17.7181 10.3488 17.6295 10.5633 17.4716 10.7216L14.6931 13.5L17.4716 16.2784Z" fill="#F01717"/>
</svg>
